HIERARCHY
ROOT ROOT
{
	OFFSET 0.000000 56.020000 -5.659234
	CHANNELS 6 Xposition Yposition Zposition Xrotation Yrotation Zrotation 
	JOINT C_spine0001_bind_JNT
	{
		OFFSET 0.000000 1.618999 0.000000
		CHANNELS 3 Xrotation Yrotation Zrotation
		JOINT C_spine0002_bind_JNT
		{
			OFFSET 0.000000 4.942001 0.000001
			CHANNELS 3 Xrotation Yrotation Zrotation
			JOINT C_spine0003_bind_JNT
			{
				OFFSET 0.000000 4.942001 -0.000000
				CHANNELS 3 Xrotation Yrotation Zrotation
				JOINT C_neck0001_bind_JNT
				{
					OFFSET 0.000000 17.026009 -0.000000
					CHANNELS 3 Xrotation Yrotation Zrotation
					JOINT C_neck0002_bind_JNT
					{
						OFFSET 0.000000 3.249985 0.000000
						CHANNELS 3 Xrotation Yrotation Zrotation
						JOINT C_head_bind_JNT
						{
							OFFSET 0.000000 5.278008 0.000000
							CHANNELS 3 Xrotation Yrotation Zrotation
							End Site
							{
								OFFSET 0.000000 0.000000 0.000000
							}
						}
					}
				}
				JOINT L_clavicle_bind_JNT
				{
					OFFSET 4.590000 12.067001 0.834000
					CHANNELS 3 Xrotation Yrotation Zrotation
					JOINT L_armUpper0001_bind_JNT
					{
						OFFSET 7.812635 0.512001 -3.452945
						CHANNELS 3 Xrotation Yrotation Zrotation
						JOINT L_armLower0001_bind_JNT
						{
							OFFSET 15.265892 -6.552116 -0.058157
							CHANNELS 3 Xrotation Yrotation Zrotation
							JOINT L_hand0001_bind_JNT
							{
								OFFSET 14.747667 -6.369995 5.049225
								CHANNELS 3 Xrotation Yrotation Zrotation
								End Site
								{
									OFFSET 0.000000 0.000000 0.000000
								}
							}
						}
					}
				}
				JOINT R_clavicle_bind_JNT
				{
					OFFSET -4.590000 12.067001 0.834000
					CHANNELS 3 Xrotation Yrotation Zrotation
					JOINT R_armUpper0001_bind_JNT
					{
						OFFSET -7.812635 0.512001 -3.452945
						CHANNELS 3 Xrotation Yrotation Zrotation
						JOINT R_armLower0001_bind_JNT
						{
							OFFSET -15.265890 -6.552124 -0.058160
							CHANNELS 3 Xrotation Yrotation Zrotation
							JOINT R_hand0001_bind_JNT
							{
								OFFSET -14.746784 -6.369629 5.048937
								CHANNELS 3 Xrotation Yrotation Zrotation
								End Site
								{
									OFFSET 0.000000 0.000000 0.000000
								}
							}
						}
					}
				}
			}
		}
	}
	JOINT C_pelvis0001_bind_JNT
	{
		OFFSET -0.000000 0.000000 0.000000
		CHANNELS 3 Xrotation Yrotation Zrotation
		JOINT L_legUpper0001_bind_JNT
		{
			OFFSET 6.599999 -6.027000 0.539000
			CHANNELS 3 Xrotation Yrotation Zrotation
			JOINT L_legLower0001_bind_JNT
			{
				OFFSET -0.140713 -19.187443 0.040261
				CHANNELS 3 Xrotation Yrotation Zrotation
				JOINT L_foot0001_bind_JNT
				{
					OFFSET -0.132215 -18.028637 -1.138370
					CHANNELS 3 Xrotation Yrotation Zrotation
					JOINT L_foot0002_bind_JNT
					{
						OFFSET 0.007014 -4.693133 9.886524
						CHANNELS 3 Xrotation Yrotation Zrotation
						End Site
						{
							OFFSET 0.000000 0.000000 0.000000
						}
					}
				}
			}
		}
		JOINT R_legUpper0001_bind_JNT
		{
			OFFSET -6.599999 -6.027000 0.539000
			CHANNELS 3 Xrotation Yrotation Zrotation
			JOINT R_legLower0001_bind_JNT
			{
				OFFSET 0.140710 -19.187164 0.040550
				CHANNELS 3 Xrotation Yrotation Zrotation
				JOINT R_foot0001_bind_JNT
				{
					OFFSET 0.132215 -18.028633 -1.138362
					CHANNELS 3 Xrotation Yrotation Zrotation
					JOINT R_foot0002_bind_JNT
					{
						OFFSET -0.007014 -4.693128 9.886505
						CHANNELS 3 Xrotation Yrotation Zrotation
						End Site
						{
							OFFSET 0.000000 0.000000 0.000000
						}
					}
				}
			}
		}
	}
}
MOTION
Frames: 16
Frame Time: 0.033333
0.000000 48.058411 0.000000 -179.995331 -4.472502 179.996277 -177.942749 3.225340 179.358292 4.437748 -0.665183 1.226529 2.380683 -0.475173 1.111137 -0.390412 0.053880 0.348620 0.936267 3.286438 -0.963381 5.345006 -0.246065 1.961788 -1.476825 18.715322 -2.959569 1.999071 5.848209 -62.674706 1.326907 14.626349 -4.099361 -18.778656 -28.832354 -40.892555 -1.619365 -9.738102 1.775715 0.415362 -7.174300 61.776150 1.747866 -13.752579 4.857075 -19.141436 24.908573 33.124329 -178.593994 3.588068 -179.942490 12.269336 -2.610096 -10.909017 0.504123 3.052409 1.172515 -7.120438 1.157348 7.973574 -4.288160 -0.096611 -0.299635 -3.260893 -0.810251 5.810534 23.763220 -1.453703 0.240557 -5.273191 -3.722017 -1.862798 -9.888084 -0.754311 1.160080 
0.227118 47.978867 -0.027991 179.998138 -3.577696 179.979446 -177.097305 3.071000 179.434067 4.647408 -0.635821 1.250203 3.022673 -0.028896 0.683797 -1.410595 -0.172337 0.125835 1.147067 3.452541 -0.326861 5.832028 -0.026948 1.937998 -0.737410 19.039459 -3.123717 0.441502 4.708221 -61.711452 2.303095 15.131373 -5.300940 -18.327728 -28.261192 -40.971111 -1.778119 -9.859904 2.499620 1.219348 -6.223932 60.268608 1.948774 -12.603662 5.163981 -21.729342 24.290323 34.270313 -177.627823 3.343716 -179.942780 13.045913 -1.874101 -11.756015 0.349097 4.093496 1.230150 -6.985161 0.242412 8.456635 -3.401516 -0.285115 -0.148071 -3.031670 -1.117681 5.681519 25.305159 -0.788836 0.105972 -5.804277 -3.381516 -1.931575 -10.785343 -0.770759 1.108944 
0.219734 47.899029 0.508426 179.995560 -3.323005 -179.991104 -177.322418 2.766155 179.692642 4.469659 -0.809332 1.037067 3.119891 -0.370726 0.730756 -1.498244 -0.359415 0.423986 1.115225 4.023668 -0.431306 5.303803 -0.114025 2.252824 -1.388158 19.058811 -3.337175 0.598566 4.623544 -61.364979 2.115915 15.408306 -5.191922 -19.075554 -28.197369 -41.536674 -1.569612 -10.057343 3.182913 1.389147 -6.779860 59.623791 1.756049 -12.982604 4.882581 -21.750090 24.165850 34.431084 -177.933807 2.844568 -179.577271 13.771734 -2.819609 -12.088367 -0.234988 4.419535 1.379351 -7.149531 0.429794 8.461733 -3.528183 -0.186660 -0.189842 -4.818692 -1.258107 5.629860 26.749901 0.080631 -0.362359 -5.365874 -3.345429 -1.739262 -10.545578 -0.292817 0.804439 
0.215508 47.927898 0.887082 -179.987381 -3.411385 179.966507 -177.162186 3.025050 179.042709 4.821246 -0.787895 1.520182 2.945043 -0.257535 0.789435 -1.592688 -0.362255 0.455068 1.239613 4.090960 -0.360381 5.331707 -0.419749 2.013938 -1.427683 18.456501 -3.137811 0.417531 5.102128 -61.307835 2.734484 15.369704 -5.559508 -19.343494 -27.717783 -41.849560 -1.589517 -10.661199 3.289873 1.919029 -7.250817 59.781754 1.864773 -13.334696 4.539876 -22.044695 24.017653 35.285675 -177.960876 3.008575 -179.777542 14.317311 -3.032449 -11.811657 -0.588660 4.691475 1.140295 -7.403047 0.541505 8.614800 -3.765720 -0.417019 -0.081080 -5.896016 -0.961188 5.795620 26.975540 0.594228 -0.301251 -5.780777 -3.393195 -2.204799 -8.794607 -0.248025 0.539769 
0.123953 47.989017 1.146351 -179.993134 -3.483359 179.994766 -177.188293 3.102922 178.815231 4.766155 -0.927949 1.672987 3.018924 -0.507073 0.886306 -1.776603 -0.405319 0.664751 1.322527 4.371345 -0.331239 5.549323 -0.289900 1.913123 -1.522224 18.333286 -3.184210 0.918168 5.089209 -61.306492 2.626181 15.025461 -5.545214 -19.014605 -27.448597 -41.882423 -1.560348 -10.893270 3.246560 2.369900 -7.533686 59.899036 2.234765 -13.384489 4.318770 -22.213406 23.705250 35.562698 -177.820938 3.066926 -179.967224 15.391729 -2.926921 -11.401754 -1.751901 4.976725 0.929680 -7.035229 0.229125 8.571313 -3.761615 -0.427193 -0.220201 -6.630041 -1.194037 6.603102 25.397436 1.054006 -0.589244 -6.409254 -3.418272 -2.465376 -6.061012 -0.179429 0.139646 
-0.053401 48.011856 1.429199 -179.992905 -3.284140 179.988937 -177.438217 3.290265 178.838181 4.665698 -0.758387 1.666150 2.769101 -0.343134 0.970731 -1.697522 -0.442936 0.767410 1.294389 4.215732 -0.464960 5.721097 -0.425494 1.683027 -1.458139 17.503942 -3.199793 1.150025 5.285303 -61.349136 3.160103 14.839545 -5.572934 -18.776735 -27.538647 -41.539738 -1.332510 -11.725661 3.154723 2.691395 -7.582051 59.903469 2.933794 -13.264156 3.885574 -21.703144 23.090572 35.914070 -178.293152 3.231682 179.984940 15.859532 -2.832096 -11.214824 -2.917531 5.538205 1.135149 -6.707932 -0.158556 8.091995 -3.819037 -0.462559 -0.289368 -6.930824 -1.210147 7.043829 22.952408 1.943341 -0.830221 -6.855945 -3.528683 -2.960918 -4.228090 -0.139681 -0.074874 
-0.303346 48.146042 1.518039 -179.990585 -2.611973 179.986084 -177.768982 3.183521 178.835373 4.455230 -0.600826 1.727435 2.627841 -0.281871 1.007399 -1.828693 -0.407179 0.751795 1.375500 4.310452 -0.402542 6.287909 -0.220984 1.389850 -1.452984 16.791981 -3.279395 1.462792 5.391527 -61.296150 3.482904 14.402129 -5.715856 -18.478205 -27.607971 -41.059975 -1.128214 -12.063871 3.220280 2.751873 -7.558088 59.772518 3.272602 -13.708489 3.412560 -21.150251 23.078884 36.207073 -178.614456 3.133801 179.860382 16.164175 -2.587366 -10.830537 -4.192281 6.214911 1.131197 -6.150286 -0.316056 7.730189 -3.736582 -0.592558 -0.404686 -6.408609 -1.133290 7.971145 19.418739 2.610181 -1.224320 -6.504738 -3.330692 -3.942039 -2.946279 -0.064357 -0.344026 
-0.597216 48.163631 1.554582 -179.987930 -2.017381 179.985138 -177.929901 3.061977 178.994766 4.403257 -0.521989 1.644670 2.431109 -0.169832 0.936257 -1.743730 -0.380658 0.867203 1.336360 4.175162 -0.523689 6.597047 -0.223138 1.324211 -1.583493 16.113789 -2.889382 1.719548 5.626020 -61.583427 3.762734 14.346289 -5.839760 -17.990505 -27.884296 -40.524628 -1.196598 -12.407452 3.191662 3.125631 -7.648193 59.681309 3.705367 -13.904502 3.174109 -20.559935 22.855680 36.282860 -178.875931 2.990611 179.785400 16.164047 -2.420778 -10.485740 -4.709415 6.652721 1.304466 -5.950161 -0.469281 7.223033 -3.723059 -0.574928 -0.138696 -5.619133 -1.312690 8.665450 16.399958 3.537014 -1.518019 -5.844945 -3.097966 -4.543042 -2.426875 -0.041523 -0.751769 
-0.884467 48.168968 1.608431 -179.991028 -1.201777 179.982208 -178.281281 2.591005 179.171463 4.192665 -0.584362 1.602308 2.260797 -0.230083 0.925968 -1.934700 -0.398560 0.929029 1.331302 4.422542 -0.527895 7.279372 -0.137581 1.015795 -1.624072 15.653555 -3.025751 1.746120 5.943435 -61.439018 4.057391 14.190782 -5.857425 -17.809477 -28.190908 -40.463146 -1.163975 -12.627772 3.067341 3.218487 -7.611771 59.403839 4.128499 -14.092614 2.973166 -20.314117 22.854399 36.584682 -179.023743 2.658480 179.790512 16.284046 -2.262695 -10.187274 -4.888730 6.787441 1.239826 -5.836441 -0.329269 6.984787 -3.727453 -0.471356 -0.204369 -4.900185 -0.961344 9.257560 14.017652 3.911208 -1.698588 -4.771337 -3.450872 -5.168118 -2.523596 0.030151 -0.771581 
-1.156103 48.228062 1.681364 -179.985397 -0.382526 179.988724 -178.498627 2.260533 179.221313 4.106201 -0.527190 1.547927 2.202637 -0.151628 1.102058 -1.962539 -0.369976 0.968862 1.347018 4.453178 -0.701244 7.307574 -0.127207 0.965753 -1.936750 15.281919 -3.012819 1.989596 6.002985 -61.591534 4.271822 13.890517 -5.817641 -17.527081 -28.266056 -40.159069 -1.440520 -12.691952 2.999071 3.350113 -7.576819 59.220673 4.476771 -14.352686 2.934741 -19.836512 22.876873 36.294456 -179.279785 2.284189 179.770370 16.250877 -2.109560 -9.857307 -4.988345 6.961926 1.180092 -5.743699 -0.471807 6.656952 -3.946251 -0.392557 -0.102940 -4.407278 -0.752342 9.903115 12.411553 4.021588 -1.867296 -4.348851 -3.476550 -5.455547 -2.438298 -0.062153 -0.615219 
-1.394600 48.206150 1.808154 -179.987732 0.166952 179.988846 -178.755417 2.045887 179.286774 3.968560 -0.456913 1.647671 2.176366 -0.128358 1.131217 -1.929603 -0.362242 1.041016 1.364277 4.533890 -0.673964 7.478451 -0.269610 0.468302 -1.772045 15.108874 -3.167820 1.610339 5.981241 -61.505699 4.611024 13.633253 -5.880520 -17.503199 -28.285223 -39.998344 -1.389252 -12.781535 2.883013 3.242596 -7.571390 58.901737 4.807443 -14.450010 2.884358 -19.599159 22.993935 36.438580 -179.489563 2.095657 179.832260 16.162075 -1.981277 -9.556079 -4.399714 7.123144 0.869445 -6.087811 -0.458290 6.378972 -4.024388 -0.439574 -0.039186 -4.233526 -0.646903 10.405873 11.221189 4.436004 -1.925126 -3.857049 -4.005800 -5.866723 -2.214679 -0.017583 -0.615688 
-1.558207 48.183208 2.007120 -179.989197 0.575121 179.984985 -178.966736 1.793541 179.336548 3.787917 -0.620541 1.687746 2.120874 -0.227676 1.156404 -1.698926 -0.276558 1.140548 1.312287 4.606497 -0.761653 7.314274 -0.226196 0.253767 -1.870731 15.020150 -3.198167 1.826317 5.910241 -61.614376 4.727273 13.222977 -5.784505 -17.430433 -28.366537 -39.807701 -1.264816 -12.698621 3.012352 3.401572 -7.574661 58.673553 4.960586 -14.166905 2.755026 -19.403332 23.180292 36.308411 -179.650269 1.772795 179.723495 16.388479 -2.194662 -9.269151 -4.021973 7.238911 0.723141 -6.545341 -0.446201 6.249687 -4.230618 -0.329321 -0.110132 -4.365591 -0.757910 11.069617 10.912069 4.363131 -2.213854 -3.801179 -4.262805 -6.101851 -2.162149 -0.155413 -0.570054 
-1.663014 48.153347 2.262397 -179.988815 1.141493 179.985199 -178.952835 1.499904 179.234802 3.868903 -0.604043 1.819698 2.111470 -0.206282 1.197173 -1.710242 -0.250207 1.276448 1.330455 4.615181 -0.853972 7.563618 -0.150946 -0.170769 -1.763907 14.992816 -3.161583 1.574700 5.773042 -61.739128 4.771388 13.116382 -5.558257 -17.469767 -28.540665 -39.904625 -1.215440 -12.615983 3.003324 3.294512 -7.649490 58.494213 5.238302 -14.398395 2.648229 -19.310247 23.667593 36.708767 -179.674500 1.443061 179.664810 16.651478 -1.893028 -9.111671 -3.479685 7.239275 0.458136 -6.949768 -0.429402 6.196224 -4.547908 -0.315990 -0.075711 -4.113884 -0.770169 11.452375 10.660670 4.668086 -2.445706 -3.813010 -4.849318 -6.472888 -2.130925 -0.087271 -0.601424 
-1.769991 48.067966 2.615380 -179.984497 1.275536 179.987061 -178.964798 1.453312 179.050308 3.908272 -0.691510 2.081830 2.203055 -0.344505 1.295297 -1.702011 -0.241365 1.283794 1.336366 4.803913 -0.952891 7.550863 -0.223972 -0.115165 -1.808008 15.005857 -3.264867 1.459064 5.636749 -61.756382 4.682399 12.734131 -5.444310 -17.379034 -28.614281 -39.996422 -1.201332 -12.557124 3.064335 3.278731 -7.815327 58.246414 5.469741 -14.349760 2.518365 -19.142925 23.664883 36.848412 -179.681213 1.269612 179.519699 17.022718 -1.844743 -8.649003 -2.482063 7.333849 0.047299 -7.615862 -0.385267 6.164046 -5.157076 -0.133359 -0.184030 -4.450863 -0.846784 11.860422 11.205653 4.632389 -2.638621 -4.119822 -5.071586 -6.634998 -1.963688 -0.083550 -0.541574 
-1.888544 48.009369 3.095456 -179.986526 1.594442 179.983017 -178.979034 1.228110 178.849655 3.978790 -0.810192 2.291033 2.203239 -0.402606 1.450215 -1.831294 -0.237667 1.324210 1.450038 4.964750 -0.985579 7.758908 -0.254881 -0.434897 -1.643769 14.959541 -3.308193 1.189534 5.625406 -61.805393 4.336604 12.676727 -5.359659 -16.890884 -28.664927 -39.984482 -1.056342 -12.407054 3.021676 3.219811 -7.922153 58.329342 5.828084 -14.346540 2.277766 -19.261942 23.690765 36.949619 -179.825394 0.974963 179.381363 16.988441 -1.740871 -8.178102 -0.687560 7.197773 -0.345157 -8.431975 -0.033131 5.862175 -6.151302 -0.066259 -0.102223 -4.354435 -0.936201 12.025750 11.247913 4.924822 -2.665282 -4.431349 -5.324506 -6.846390 -1.865772 -0.040447 -0.525201 
-2.015526 47.972485 3.579312 -179.981064 1.417758 179.985733 -178.968018 1.435796 178.643921 4.010838 -0.924696 2.594120 2.293305 -0.525082 1.418414 -1.895330 -0.198728 1.363871 1.500664 4.947375 -1.039568 8.068460 -0.269438 -0.464010 -1.591223 15.036750 -3.255180 1.200142 5.711637 -61.808037 4.232891 12.429706 -5.244021 -16.987696 -28.708950 -40.147621 -0.987292 -12.234241 3.035036 3.259787 -7.907305 58.225613 5.697331 -14.311621 2.203292 -19.222837 23.908751 37.185352 -179.819870 1.153429 179.242935 16.784731 -1.498509 -7.750124 1.415899 7.262264 -0.777188 -8.605600 0.165427 5.633818 -7.911725 -0.001222 -0.431918 -4.243967 -0.889457 12.324709 11.484677 5.011080 -2.855972 -4.693286 -5.497727 -6.812988 -1.876658 -0.053561 -0.502848 
